<?xml version="1.0" standalone="no"?>
<!DOCTYPE svg PUBLIC "-//W3C//DTD SVG 20010904//EN"
 "http://www.w3.org/TR/2001/REC-SVG-20010904/DTD/svg10.dtd">
<svg version="1.0" xmlns="http://www.w3.org/2000/svg"
 width="600.000000pt" height="300.000000pt" viewBox="0 0 600.000000 300.000000"
 preserveAspectRatio="xMidYMid meet">

<g transform="translate(0.000000,300.000000) scale(0.100000,-0.100000)"
fill="#000000" stroke="none">
<path d="M1832 2990 c-99 -20 -201 -90 -261 -181 -75 -112 -72 -59 -69 -1339
3 -1279 -3 -1183 82 -1297 48 -66 124 -121 206 -149 53 -18 103 -19 1210 -19
1107 0 1157 1 1210 19 82 28 158 83 207 149 83 114 78 24 78 1327 0 1303 5
1213 -78 1327 -45 61 -116 114 -197 149 -43 18 -86 19 -1195 21 -632 0 -1169
-3 -1193 -7z m1167 -780 c203 -38 363 -232 365 -442 l1 -58 61 0 61 0 12 43
c6 23 31 126 55 228 24 103 49 196 55 208 14 26 55 37 85 23 12 -5 136 -170
275 -367 247 -348 253 -357 235 -375 -113 -109 -617 -553 -723 -638 -73 -59
-110 -66 -148 -30 -33 31 -34 20 40 406 l14 72 -59 0 c-44 0 -58 -4 -58 -14 0
-8 -23 -108 -50 -223 -41 -168 -56 -213 -76 -233 l-24 -25 -472 -3 c-447 -2
-476 -2 -538 17 -185 57 -305 198 -330 389 -27 209 103 418 308 495 54 20 80
22 452 27 l395 5 3 22 c2 12 -6 31 -17 42 -20 20 -31 21 -400 21 l-380 0 -20
26 c-27 35 -26 59 4 89 l24 25 398 0 c366 0 401 -2 438 -19 71 -33 110 -98
103 -171 l-4 -40 75 0 74 0 -5 68 c-9 124 -71 217 -180 272 l-61 30 -384 0
-384 0 -24 25 c-14 13 -25 34 -25 45 0 12 11 32 25 45 l24 25 364 0 c200 0
387 -4 416 -10z"/>
<path d="M3690 1994 c0 -18 -90 -405 -96 -416 -3 -5 -320 -8 -704 -8 -683 0
-701 0 -755 -21 -67 -25 -140 -93 -175 -164 -21 -42 -25 -64 -25 -140 0 -76 4
-98 25 -139 34 -67 100 -132 163 -161 l52 -25 416 0 c333 0 419 3 434 14 12 9
31 64 61 180 l42 166 -73 0 -74 0 -26 -87 c-15 -49 -36 -98 -48 -111 l-21 -23
-346 3 -347 3 -37 29 c-69 52 -96 122 -75 198 14 53 72 112 124 127 39 11
1355 17 1355 6 0 -6 -66 -330 -79 -385 -5 -24 -9 -45 -8 -46 1 -1 129 113 284
254 l281 255 -169 254 c-93 139 -171 253 -174 253 -3 0 -5 -7 -5 -16z"/>
<path d="M2240 1261 c-13 -25 -13 -27 6 -45 13 -14 54 -16 289 -16 l273 0 11
31 c6 18 11 36 11 40 0 5 -130 9 -290 9 -276 0 -290 -1 -300 -19z"/>
</g>
</svg>
