<?xml version="1.0" standalone="no"?>
<!DOCTYPE svg PUBLIC "-//W3C//DTD SVG 20010904//EN"
 "http://www.w3.org/TR/2001/REC-SVG-20010904/DTD/svg10.dtd">
<svg version="1.0" xmlns="http://www.w3.org/2000/svg"
 width="1707.000000pt" height="1483.000000pt" viewBox="0 0 1707.000000 1483.000000"
 preserveAspectRatio="xMidYMid meet">

<g transform="translate(0.000000,1483.000000) scale(0.100000,-0.100000)"
fill="#000000" stroke="none">
<path d="M9090 14823 c-285 -14 -823 -91 -1155 -164 -217 -48 -585 -141 -585
-149 0 -19 74 -19 181 1 165 30 480 37 660 14 455 -57 916 -203 1354 -429 254
-131 533 -306 705 -442 113 -90 409 -388 491 -494 170 -221 260 -419 293 -643
34 -228 10 -356 -116 -619 l-61 -127 5 -158 c5 -135 10 -170 32 -236 25 -74
64 -159 103 -220 l18 -29 -55 -51 c-82 -76 -838 -769 -1135 -1042 -143 -131
-567 -520 -943 -864 -376 -344 -687 -626 -692 -626 -4 0 -221 185 -481 411
-261 226 -575 498 -699 604 -213 184 -627 543 -863 749 -74 64 -106 99 -103
110 3 9 31 122 61 251 31 129 159 647 284 1150 125 503 226 920 224 925 -8 24
-91 75 -1178 720 -685 407 -1511 903 -1865 1119 -68 42 -130 76 -137 76 -6 0
-47 -30 -90 -66 -161 -137 -834 -755 -841 -774 -1 -3 287 -272 640 -596 752
-690 1102 -1012 1176 -1080 l53 -49 -91 -295 c-195 -629 -262 -836 -275 -849
-7 -7 -57 -26 -111 -42 -115 -35 -888 -238 -1017 -269 -146 -33 -141 -35 -269
84 -279 257 -693 636 -1173 1074 -286 261 -532 486 -547 500 l-27 25 -103 -94
c-290 -265 -738 -680 -743 -689 -4 -6 4 -27 16 -46 30 -49 287 -391 485 -644
262 -336 737 -955 1114 -1450 397 -523 525 -686 546 -698 15 -9 58 -3 309 42
130 24 394 70 745 130 145 25 538 94 810 142 272 48 355 63 512 90 l157 27
110 -104 c225 -214 1471 -1431 1470 -1437 0 -4 -140 -128 -311 -277 -171 -148
-392 -342 -492 -430 -99 -88 -386 -340 -636 -560 -250 -220 -534 -470 -630
-555 -96 -86 -323 -286 -505 -445 -371 -325 -582 -511 -866 -761 -413 -364
-989 -870 -1329 -1168 -1031 -904 -1054 -927 -1127 -1107 -70 -173 -19 -377
145 -576 69 -84 395 -393 869 -825 509 -463 537 -485 732 -569 157 -67 225
-81 396 -82 225 -1 312 25 456 141 97 78 545 504 1603 1527 148 143 341 329
430 414 89 85 285 275 436 421 565 545 839 811 995 960 419 402 737 711 810
784 96 98 834 806 999 960 l117 109 107 -104 c674 -654 903 -878 1437 -1399
1176 -1148 1922 -1877 2490 -2429 314 -305 665 -648 780 -761 359 -354 537
-520 615 -574 245 -172 458 -254 713 -275 132 -10 331 -1 410 19 308 79 586
249 777 475 85 101 131 173 192 301 74 157 99 256 105 407 11 265 -59 483
-225 702 -72 95 -103 124 -972 880 -227 198 -504 439 -614 535 -243 212 -449
391 -1006 875 -234 203 -544 473 -690 600 -146 127 -418 363 -605 525 -187
162 -513 445 -725 629 -597 518 -886 768 -1220 1056 -292 251 -420 367 -420
380 0 10 281 276 555 526 28 25 142 130 255 235 113 104 282 259 375 344 94
85 229 209 300 275 72 66 256 235 410 375 153 140 416 380 582 532 l304 277
102 -68 c327 -219 575 -263 1012 -180 128 25 299 22 400 -5 83 -23 212 -86
303 -148 97 -67 345 -313 536 -531 l147 -169 -130 -133 c-113 -116 -135 -143
-173 -221 l-43 -89 0 -135 c0 -124 2 -141 29 -213 81 -220 277 -402 526 -487
93 -31 275 -39 390 -16 163 33 186 50 679 495 107 97 222 200 255 230 167 149
538 496 582 543 51 56 103 150 125 228 19 68 17 243 -5 315 -70 235 -272 433
-537 526 -55 20 -84 23 -204 23 -154 0 -219 -13 -333 -65 l-64 -29 -27 21
c-34 27 -174 190 -264 309 -100 132 -155 226 -335 577 -208 405 -293 530 -601
882 -142 162 -242 260 -716 701 -198 184 -443 414 -545 510 -488 459 -932 873
-1025 955 -258 227 -584 441 -930 610 -474 233 -1071 387 -1601 414 -212 11
-675 20 -774 14z m5808 -13096 c153 -53 283 -161 346 -288 45 -90 59 -159 54
-278 -3 -92 -6 -103 -47 -187 -78 -159 -206 -262 -396 -320 -91 -28 -259 -26
-349 4 -182 61 -269 132 -307 251 -41 128 -40 328 2 466 47 157 145 293 245
340 79 37 123 44 259 41 98 -3 134 -8 193 -29z"/>
</g>
</svg>
