<?xml version="1.0" standalone="no"?>
<!DOCTYPE svg PUBLIC "-//W3C//DTD SVG 20010904//EN"
 "http://www.w3.org/TR/2001/REC-SVG-20010904/DTD/svg10.dtd">
<svg version="1.0" xmlns="http://www.w3.org/2000/svg"
 width="200.000000pt" height="200.000000pt" viewBox="0 0 200.000000 200.000000"
 preserveAspectRatio="xMidYMid meet">

<g transform="translate(0.000000,200.000000) scale(0.100000,-0.100000)"
fill="#000000" stroke="none">
<path d="M0 1000 l0 -1000 1000 0 1000 0 0 1000 0 1000 -1000 0 -1000 0 0
-1000z m710 715 l0 -45 -90 0 c-83 0 -90 -1 -90 -20 0 -11 3 -20 8 -21 4 0 39
-1 77 -2 l70 -2 0 -40 0 -40 -77 -3 -78 -3 0 -59 0 -60 -50 0 -50 0 0 163 c0
90 3 167 7 170 3 4 66 7 140 7 l133 0 0 -45z m411 -22 c0 -38 2 -79 4 -93 2
-14 1 -60 -2 -102 l-6 -78 -43 0 -44 0 0 50 c0 35 -4 50 -13 50 -8 0 -26 -22
-41 -50 -27 -50 -28 -50 -77 -50 -27 0 -49 2 -49 5 0 3 13 32 29 64 27 52 28
60 15 73 -22 22 -29 92 -14 129 22 51 62 69 158 69 l82 0 1 -67z m363 53 c40
-17 86 -74 95 -119 23 -106 -56 -207 -161 -207 -84 0 -148 50 -168 132 -34
134 104 248 234 194z m-897 -575 c0 -11 -5 -18 -9 -15 -4 3 -5 11 -1 19 7 21
12 19 10 -4z m118 -5 c6 -2 9 -65 7 -169 l-3 -165 -45 -4 c-25 -2 -47 -1 -49
2 -2 4 -5 37 -6 75 -2 68 -2 68 -21 46 -10 -13 -15 -28 -11 -34 3 -5 1 -7 -4
-4 -14 9 -37 -19 -27 -34 4 -7 3 -9 -4 -5 -6 3 -19 -5 -29 -18 -13 -17 -32
-25 -59 -28 l-39 -3 -3 173 -2 173 51 -3 52 -3 -2 -80 -2 -80 20 29 c11 17 17
34 14 39 -3 6 -1 7 5 3 6 -3 20 6 31 21 62 82 61 82 89 77 15 -3 32 -6 37 -8z
m427 -3 c2 -5 1 -26 -2 -48 -5 -40 -5 -40 -48 -40 l-44 0 -1 -125 -2 -124 -47
-1 -48 0 0 128 0 129 -47 -3 -48 -3 -3 47 -3 47 145 0 c80 0 146 -3 148 -7z
m-598 -73 c-6 -6 -10 -3 -10 10 0 13 4 16 10 10 7 -7 7 -13 0 -20z m817 -90
c-1 -36 -3 -66 -4 -67 -1 -1 -27 -3 -57 -4 l-55 -3 -3 72 -3 73 62 -3 63 -3
-3 -65z m360 -7 c-2 -53 1 -73 10 -73 7 0 9 -3 6 -6 -4 -4 -13 -1 -21 5 -10 8
-58 11 -153 10 l-138 -1 -3 57 c-5 90 -13 86 154 83 l147 -3 -2 -72z m-1033
-460 l-3 -38 -67 -3 c-60 -3 -68 -5 -68 -22 0 -17 7 -20 54 -20 57 0 63 -5 62
-50 -1 -23 -5 -25 -58 -28 -54 -3 -58 -5 -58 -27 0 -24 2 -25 70 -25 l70 0 0
-40 0 -41 -117 3 -118 3 -3 163 -2 162 120 0 121 0 -3 -37z m390 8 c47 -47 49
-114 6 -162 -13 -15 -12 -22 16 -68 16 -29 30 -56 30 -62 0 -6 -20 -9 -47 -7
-44 3 -49 6 -73 48 -37 64 -58 65 -62 3 l-3 -48 -45 0 -45 0 -3 163 -2 162 99
0 c97 0 100 -1 129 -29z m462 -136 l0 -165 -115 0 -115 0 0 40 0 40 70 0 c68
0 70 1 70 25 0 24 -3 25 -60 25 l-60 0 0 35 0 35 60 0 c57 0 60 1 60 25 0 24
-2 25 -70 25 l-70 0 0 40 0 40 115 0 115 0 0 -165z"/>
<path d="M971 1656 c-18 -22 -2 -46 30 -46 26 0 29 4 29 30 0 25 -4 30 -24 30
-13 0 -29 -6 -35 -14z"/>
<path d="M1379 1657 c-59 -45 -36 -147 32 -147 63 0 94 93 46 138 -26 24 -54
28 -78 9z"/>
<path d="M940 456 c0 -31 3 -36 23 -36 33 0 49 15 45 41 -2 19 -10 25 -35 27
-32 3 -33 2 -33 -32z"/>
</g>
</svg>
