<?xml version="1.0" standalone="no"?>
<!DOCTYPE svg PUBLIC "-//W3C//DTD SVG 20010904//EN"
 "http://www.w3.org/TR/2001/REC-SVG-20010904/DTD/svg10.dtd">
<svg version="1.0" xmlns="http://www.w3.org/2000/svg"
 width="800.000000pt" height="800.000000pt" viewBox="0 0 800.000000 800.000000"
 preserveAspectRatio="xMidYMid meet">

<g transform="translate(0.000000,800.000000) scale(0.100000,-0.100000)"
fill="#000000" stroke="none">
<path d="M3850 6993 c-36 -2 -127 -10 -203 -19 -1039 -115 -1941 -788 -2357
-1757 -52 -121 -133 -354 -128 -368 2 -5 37 14 79 41 281 181 626 293 994 320
153 12 272 7 437 -17 l108 -15 97 92 c304 288 698 442 1128 441 165 0 250 -10
399 -47 365 -91 715 -328 925 -631 74 -105 168 -294 210 -419 52 -158 72 -289
78 -500 l6 -190 95 -13 c333 -45 601 -277 688 -596 25 -95 30 -286 9 -381 -19
-87 -75 -216 -126 -291 -86 -126 -237 -244 -380 -297 -145 -55 -171 -56 -1081
-56 l-838 0 0 -645 0 -645 798 0 c1004 0 1127 7 1402 81 260 70 544 215 774
397 95 74 248 231 328 334 246 314 387 655 438 1053 15 120 13 394 -5 520 -79
561 -381 1072 -825 1397 l-86 63 -29 95 c-176 571 -550 1108 -1018 1458 -438
328 -950 529 -1482 581 -121 12 -346 19 -435 14z"/>
</g>
</svg>
